# xmcd
#
# Track frame offsets:
#	150
#	16178
#	32129
#	48439
#	61604
#	80429
#	94482
#	107960
#	126283
#	141214
#
# Disc length: 2134 seconds
#
# Revision: 0
# Processed by: cddbd v1.5.2PL0 Copyright (c) Steve Scherf et al.
# Submitted via: EasyCDDAExtractor 8.2.3.1
#
DISCID=8308540a
DTITLE=Bob Dilley - I'd Like To Write Myself A Song
DYEAR=2003
DGENRE=Country
TTITLE0=Are You Gonna Go
TTITLE1=Carmen
TTITLE2=I Gotta Have More Of You
TTITLE3=I Want To Hold You Until You Go
TTITLE4=I'd Like To Please You
TTITLE5=I'd Like To Write Myself A Song
TTITLE6=If You Should Fall
TTITLE7=I'll Spend Eternity With You
TTITLE8=I'm Drinkin' Again
TTITLE9=I'm Hurting Only Me
EXTD=
EXTT0=
EXTT1=
EXTT2=
EXTT3=
EXTT4=
EXTT5=
EXTT6=
EXTT7=
EXTT8=
EXTT9=
PLAYORDER=
